<?xml version="1.0" standalone="no"?>
<!DOCTYPE svg PUBLIC "-//W3C//DTD SVG 1.1//EN" "http://www.w3.org/Graphics/SVG/1.1/DTD/svg11.dtd" >
<svg xmlns="http://www.w3.org/2000/svg" xmlns:xlink="http://www.w3.org/1999/xlink" version="1.1">
<metadata>
Created by FontForge 20201107 at Mon Jan 26 17:40:26 1970
 By www-data
(c)
</metadata>
<defs>
<font id="PIXEL" horiz-adv-x="768" >
  <font-face 
    font-family="PIXEL"
    font-weight="400"
    font-stretch="normal"
    units-per-em="1024"
    panose-1="0 0 4 0 0 0 0 0 0 0"
    ascent="0"
    descent="-1024"
    bbox="0 -768 672 0"
    underline-thickness="51"
    underline-position="77"
    unicode-range="U+000D-007E"
  />
<missing-glyph horiz-adv-x="96" 
 />
    <glyph glyph-name=".notdef" horiz-adv-x="96" 
 />
    <glyph glyph-name=".null" horiz-adv-x="0" 
 />
    <glyph glyph-name="uni000D" unicode="&#xd;" horiz-adv-x="96" 
 />
    <glyph glyph-name="space" unicode=" " horiz-adv-x="480" 
 />
    <glyph glyph-name="exclam" unicode="!" horiz-adv-x="192" 
d="M0 -96h96v-96h-96v96zM0 -192h96v-96h-96v96zM0 -288h96v-96h-96v96zM0 -384h96v-96h-96v96zM0 -576h96v-96h-96v96z" />
    <glyph glyph-name="quotedbl" unicode="&#x22;" horiz-adv-x="384" 
d="M0 0h96v-96h-96v96zM192 0h96v-96h-96v96zM0 -96h96v-96h-96v96zM192 -96h96v-96h-96v96z" />
    <glyph glyph-name="numbersign" unicode="#" 
d="M96 0h96v-96h-96v96zM480 0h96v-96h-96v96zM0 -96h96v-96h-96v96zM96 -96h96v-96h-96v96zM192 -96h96v-96h-96v96zM288 -96h96v-96h-96v96zM384 -96h96v-96h-96v96zM480 -96h96v-96h-96v96zM576 -96h96v-96h-96v96zM96 -192h96v-96h-96v96zM480 -192h96v-96h-96v96z
M96 -288h96v-96h-96v96zM480 -288h96v-96h-96v96zM96 -384h96v-96h-96v96zM480 -384h96v-96h-96v96zM0 -480h96v-96h-96v96zM96 -480h96v-96h-96v96zM192 -480h96v-96h-96v96zM288 -480h96v-96h-96v96zM384 -480h96v-96h-96v96zM480 -480h96v-96h-96v96zM576 -480h96v-96
h-96v96zM96 -576h96v-96h-96v96zM480 -576h96v-96h-96v96z" />
    <glyph glyph-name="dollar" unicode="$" horiz-adv-x="672" 
d="M288 0h96v-96h-96v96zM192 -96h96v-96h-96v96zM288 -96h96v-96h-96v96zM384 -96h96v-96h-96v96zM96 -192h96v-96h-96v96zM192 -288h96v-96h-96v96zM288 -288h96v-96h-96v96zM384 -288h96v-96h-96v96zM480 -384h96v-96h-96v96zM192 -480h96v-96h-96v96zM288 -480h96v-96
h-96v96zM384 -480h96v-96h-96v96zM288 -576h96v-96h-96v96z" />
    <glyph glyph-name="percent" unicode="%" 
d="M96 0h96v-96h-96v96zM576 0h96v-96h-96v96zM0 -96h96v-96h-96v96zM192 -96h96v-96h-96v96zM480 -96h96v-96h-96v96zM96 -192h96v-96h-96v96zM384 -192h96v-96h-96v96zM288 -288h96v-96h-96v96zM192 -384h96v-96h-96v96zM480 -384h96v-96h-96v96zM96 -480h96v-96h-96v96z
M384 -480h96v-96h-96v96zM576 -480h96v-96h-96v96zM0 -576h96v-96h-96v96zM480 -576h96v-96h-96v96z" />
    <glyph glyph-name="ampersand" unicode="&#x26;" 
d="M96 0h96v-96h-96v96zM192 0h96v-96h-96v96zM288 0h96v-96h-96v96zM0 -96h96v-96h-96v96zM384 -96h96v-96h-96v96zM96 -192h96v-96h-96v96zM192 -192h96v-96h-96v96zM288 -192h96v-96h-96v96zM480 -192h96v-96h-96v96zM576 -192h96v-96h-96v96zM0 -288h96v-96h-96v96z
M384 -288h96v-96h-96v96zM0 -384h96v-96h-96v96zM384 -384h96v-96h-96v96zM0 -480h96v-96h-96v96zM384 -480h96v-96h-96v96zM96 -576h96v-96h-96v96zM192 -576h96v-96h-96v96zM288 -576h96v-96h-96v96zM480 -576h96v-96h-96v96zM576 -576h96v-96h-96v96z" />
    <glyph glyph-name="quotesingle" unicode="'" horiz-adv-x="192" 
d="M0 0h96v-96h-96v96zM0 -96h96v-96h-96v96z" />
    <glyph glyph-name="parenleft" unicode="(" horiz-adv-x="288" 
d="M96 0h96v-96h-96v96zM0 -96h96v-96h-96v96zM0 -192h96v-96h-96v96zM0 -288h96v-96h-96v96zM0 -384h96v-96h-96v96zM0 -480h96v-96h-96v96zM96 -576h96v-96h-96v96z" />
    <glyph glyph-name="parenright" unicode=")" horiz-adv-x="288" 
d="M0 0h96v-96h-96v96zM96 -96h96v-96h-96v96zM96 -192h96v-96h-96v96zM96 -288h96v-96h-96v96zM96 -384h96v-96h-96v96zM96 -480h96v-96h-96v96zM0 -576h96v-96h-96v96z" />
    <glyph glyph-name="asterisk" unicode="*" horiz-adv-x="384" 
d="M0 0h96v-96h-96v96zM192 0h96v-96h-96v96zM96 -96h96v-96h-96v96zM0 -192h96v-96h-96v96zM192 -192h96v-96h-96v96z" />
    <glyph glyph-name="plus" unicode="+" horiz-adv-x="384" 
d="M96 -192h96v-96h-96v96zM0 -288h96v-96h-96v96zM96 -288h96v-96h-96v96zM192 -288h96v-96h-96v96zM96 -384h96v-96h-96v96z" />
    <glyph glyph-name="comma" unicode="," horiz-adv-x="192" 
d="M0 -576h96v-96h-96v96zM0 -672h96v-96h-96v96z" />
    <glyph glyph-name="hyphen" unicode="-" horiz-adv-x="384" 
d="M0 -288h96v-96h-96v96zM96 -288h96v-96h-96v96zM192 -288h96v-96h-96v96z" />
    <glyph glyph-name="period" unicode="." horiz-adv-x="192" 
d="M0 -576h96v-96h-96v96z" />
    <glyph glyph-name="slash" unicode="/" horiz-adv-x="384" 
d="M192 0h96v-96h-96v96zM192 -96h96v-96h-96v96zM96 -192h96v-96h-96v96zM96 -288h96v-96h-96v96zM96 -384h96v-96h-96v96zM0 -480h96v-96h-96v96zM0 -576h96v-96h-96v96z" />
    <glyph glyph-name="zero" unicode="0" 
d="M96 0h96v-96h-96v96zM192 0h96v-96h-96v96zM288 0h96v-96h-96v96zM384 0h96v-96h-96v96zM480 0h96v-96h-96v96zM0 -96h96v-96h-96v96zM576 -96h96v-96h-96v96zM0 -192h96v-96h-96v96zM96 -192h96v-96h-96v96zM576 -192h96v-96h-96v96zM0 -288h96v-96h-96v96zM192 -288h96
v-96h-96v96zM288 -288h96v-96h-96v96zM384 -288h96v-96h-96v96zM576 -288h96v-96h-96v96zM0 -384h96v-96h-96v96zM480 -384h96v-96h-96v96zM576 -384h96v-96h-96v96zM0 -480h96v-96h-96v96zM576 -480h96v-96h-96v96zM96 -576h96v-96h-96v96zM192 -576h96v-96h-96v96z
M288 -576h96v-96h-96v96zM384 -576h96v-96h-96v96zM480 -576h96v-96h-96v96z" />
    <glyph glyph-name="one" unicode="1" 
d="M0 0h96v-96h-96v96zM96 0h96v-96h-96v96zM192 0h96v-96h-96v96zM288 0h96v-96h-96v96zM288 -96h96v-96h-96v96zM288 -192h96v-96h-96v96zM288 -288h96v-96h-96v96zM288 -384h96v-96h-96v96zM288 -480h96v-96h-96v96zM0 -576h96v-96h-96v96zM96 -576h96v-96h-96v96z
M192 -576h96v-96h-96v96zM288 -576h96v-96h-96v96zM384 -576h96v-96h-96v96zM480 -576h96v-96h-96v96zM576 -576h96v-96h-96v96z" />
    <glyph glyph-name="two" unicode="2" 
d="M96 0h96v-96h-96v96zM192 0h96v-96h-96v96zM288 0h96v-96h-96v96zM384 0h96v-96h-96v96zM480 0h96v-96h-96v96zM0 -96h96v-96h-96v96zM576 -96h96v-96h-96v96zM576 -192h96v-96h-96v96zM480 -288h96v-96h-96v96zM288 -384h96v-96h-96v96zM384 -384h96v-96h-96v96z
M96 -480h96v-96h-96v96zM192 -480h96v-96h-96v96zM0 -576h96v-96h-96v96zM96 -576h96v-96h-96v96zM192 -576h96v-96h-96v96zM288 -576h96v-96h-96v96zM384 -576h96v-96h-96v96zM480 -576h96v-96h-96v96zM576 -576h96v-96h-96v96z" />
    <glyph glyph-name="three" unicode="3" 
d="M96 0h96v-96h-96v96zM192 0h96v-96h-96v96zM288 0h96v-96h-96v96zM384 0h96v-96h-96v96zM480 0h96v-96h-96v96zM0 -96h96v-96h-96v96zM576 -96h96v-96h-96v96zM576 -192h96v-96h-96v96zM480 -288h96v-96h-96v96zM576 -384h96v-96h-96v96zM0 -480h96v-96h-96v96zM576 -480
h96v-96h-96v96zM96 -576h96v-96h-96v96zM192 -576h96v-96h-96v96zM288 -576h96v-96h-96v96zM384 -576h96v-96h-96v96zM480 -576h96v-96h-96v96z" />
    <glyph glyph-name="four" unicode="4" 
d="M0 0h96v-96h-96v96zM576 0h96v-96h-96v96zM0 -96h96v-96h-96v96zM576 -96h96v-96h-96v96zM0 -192h96v-96h-96v96zM576 -192h96v-96h-96v96zM0 -288h96v-96h-96v96zM96 -288h96v-96h-96v96zM192 -288h96v-96h-96v96zM288 -288h96v-96h-96v96zM384 -288h96v-96h-96v96z
M480 -288h96v-96h-96v96zM576 -288h96v-96h-96v96zM576 -384h96v-96h-96v96zM576 -480h96v-96h-96v96zM576 -576h96v-96h-96v96z" />
    <glyph glyph-name="five" unicode="5" 
d="M0 0h96v-96h-96v96zM96 0h96v-96h-96v96zM192 0h96v-96h-96v96zM288 0h96v-96h-96v96zM384 0h96v-96h-96v96zM480 0h96v-96h-96v96zM576 0h96v-96h-96v96zM0 -96h96v-96h-96v96zM0 -192h96v-96h-96v96zM0 -288h96v-96h-96v96zM96 -288h96v-96h-96v96zM192 -288h96v-96
h-96v96zM288 -288h96v-96h-96v96zM384 -288h96v-96h-96v96zM480 -288h96v-96h-96v96zM576 -384h96v-96h-96v96zM576 -480h96v-96h-96v96zM0 -576h96v-96h-96v96zM96 -576h96v-96h-96v96zM192 -576h96v-96h-96v96zM288 -576h96v-96h-96v96zM384 -576h96v-96h-96v96zM480 -576
h96v-96h-96v96z" />
    <glyph glyph-name="six" unicode="6" 
d="M96 0h96v-96h-96v96zM192 0h96v-96h-96v96zM288 0h96v-96h-96v96zM384 0h96v-96h-96v96zM480 0h96v-96h-96v96zM0 -96h96v-96h-96v96zM0 -192h96v-96h-96v96zM0 -288h96v-96h-96v96zM96 -288h96v-96h-96v96zM192 -288h96v-96h-96v96zM288 -288h96v-96h-96v96zM384 -288
h96v-96h-96v96zM480 -288h96v-96h-96v96zM0 -384h96v-96h-96v96zM576 -384h96v-96h-96v96zM0 -480h96v-96h-96v96zM576 -480h96v-96h-96v96zM96 -576h96v-96h-96v96zM192 -576h96v-96h-96v96zM288 -576h96v-96h-96v96zM384 -576h96v-96h-96v96zM480 -576h96v-96h-96v96z" />
    <glyph glyph-name="seven" unicode="7" 
d="M0 0h96v-96h-96v96zM96 0h96v-96h-96v96zM192 0h96v-96h-96v96zM288 0h96v-96h-96v96zM384 0h96v-96h-96v96zM480 0h96v-96h-96v96zM576 0h96v-96h-96v96zM576 -96h96v-96h-96v96zM480 -192h96v-96h-96v96zM384 -288h96v-96h-96v96zM288 -384h96v-96h-96v96zM288 -480h96
v-96h-96v96zM288 -576h96v-96h-96v96z" />
    <glyph glyph-name="eight" unicode="8" 
d="M96 0h96v-96h-96v96zM192 0h96v-96h-96v96zM288 0h96v-96h-96v96zM384 0h96v-96h-96v96zM480 0h96v-96h-96v96zM0 -96h96v-96h-96v96zM576 -96h96v-96h-96v96zM0 -192h96v-96h-96v96zM576 -192h96v-96h-96v96zM96 -288h96v-96h-96v96zM192 -288h96v-96h-96v96zM288 -288
h96v-96h-96v96zM384 -288h96v-96h-96v96zM480 -288h96v-96h-96v96zM0 -384h96v-96h-96v96zM576 -384h96v-96h-96v96zM0 -480h96v-96h-96v96zM576 -480h96v-96h-96v96zM96 -576h96v-96h-96v96zM192 -576h96v-96h-96v96zM288 -576h96v-96h-96v96zM384 -576h96v-96h-96v96z
M480 -576h96v-96h-96v96z" />
    <glyph glyph-name="nine" unicode="9" 
d="M96 0h96v-96h-96v96zM192 0h96v-96h-96v96zM288 0h96v-96h-96v96zM384 0h96v-96h-96v96zM480 0h96v-96h-96v96zM0 -96h96v-96h-96v96zM576 -96h96v-96h-96v96zM0 -192h96v-96h-96v96zM576 -192h96v-96h-96v96zM96 -288h96v-96h-96v96zM192 -288h96v-96h-96v96zM288 -288
h96v-96h-96v96zM384 -288h96v-96h-96v96zM480 -288h96v-96h-96v96zM576 -288h96v-96h-96v96zM576 -384h96v-96h-96v96zM576 -480h96v-96h-96v96zM576 -576h96v-96h-96v96z" />
    <glyph glyph-name="colon" unicode=":" horiz-adv-x="192" 
d="M0 -192h96v-96h-96v96zM0 -576h96v-96h-96v96z" />
    <glyph glyph-name="semicolon" unicode=";" horiz-adv-x="192" 
d="M0 -192h96v-96h-96v96zM0 -576h96v-96h-96v96zM0 -672h96v-96h-96v96z" />
    <glyph glyph-name="less" unicode="&#x3c;" horiz-adv-x="480" 
d="M288 0h96v-96h-96v96zM192 -96h96v-96h-96v96zM96 -192h96v-96h-96v96zM0 -288h96v-96h-96v96zM96 -384h96v-96h-96v96zM192 -480h96v-96h-96v96zM288 -576h96v-96h-96v96z" />
    <glyph glyph-name="equal" unicode="=" horiz-adv-x="384" 
d="M0 -192h96v-96h-96v96zM96 -192h96v-96h-96v96zM192 -192h96v-96h-96v96zM0 -384h96v-96h-96v96zM96 -384h96v-96h-96v96zM192 -384h96v-96h-96v96z" />
    <glyph glyph-name="greater" unicode="&#x3e;" horiz-adv-x="480" 
d="M0 0h96v-96h-96v96zM96 -96h96v-96h-96v96zM192 -192h96v-96h-96v96zM288 -288h96v-96h-96v96zM192 -384h96v-96h-96v96zM96 -480h96v-96h-96v96zM0 -576h96v-96h-96v96z" />
    <glyph glyph-name="question" unicode="?" horiz-adv-x="384" 
d="M0 -192h96v-96h-96v96zM96 -192h96v-96h-96v96zM192 -192h96v-96h-96v96zM192 -288h96v-96h-96v96zM96 -384h96v-96h-96v96zM96 -576h96v-96h-96v96z" />
    <glyph glyph-name="at" unicode="@" horiz-adv-x="672" 
d="M96 -96h96v-96h-96v96zM192 -96h96v-96h-96v96zM288 -96h96v-96h-96v96zM384 -96h96v-96h-96v96zM0 -192h96v-96h-96v96zM480 -192h96v-96h-96v96zM0 -288h96v-96h-96v96zM192 -288h96v-96h-96v96zM288 -288h96v-96h-96v96zM480 -288h96v-96h-96v96zM0 -384h96v-96h-96
v96zM192 -384h96v-96h-96v96zM288 -384h96v-96h-96v96zM480 -384h96v-96h-96v96zM0 -480h96v-96h-96v96zM288 -480h96v-96h-96v96zM480 -480h96v-96h-96v96zM96 -576h96v-96h-96v96zM384 -576h96v-96h-96v96z" />
    <glyph glyph-name="A" unicode="A" 
d="M96 0h96v-96h-96v96zM192 0h96v-96h-96v96zM288 0h96v-96h-96v96zM384 0h96v-96h-96v96zM480 0h96v-96h-96v96zM0 -96h96v-96h-96v96zM576 -96h96v-96h-96v96zM0 -192h96v-96h-96v96zM576 -192h96v-96h-96v96zM0 -288h96v-96h-96v96zM96 -288h96v-96h-96v96zM192 -288h96
v-96h-96v96zM288 -288h96v-96h-96v96zM384 -288h96v-96h-96v96zM480 -288h96v-96h-96v96zM576 -288h96v-96h-96v96zM0 -384h96v-96h-96v96zM576 -384h96v-96h-96v96zM0 -480h96v-96h-96v96zM576 -480h96v-96h-96v96zM0 -576h96v-96h-96v96zM576 -576h96v-96h-96v96z" />
    <glyph glyph-name="B" unicode="B" 
d="M0 0h96v-96h-96v96zM96 0h96v-96h-96v96zM192 0h96v-96h-96v96zM288 0h96v-96h-96v96zM384 0h96v-96h-96v96zM480 0h96v-96h-96v96zM0 -96h96v-96h-96v96zM576 -96h96v-96h-96v96zM0 -192h96v-96h-96v96zM576 -192h96v-96h-96v96zM0 -288h96v-96h-96v96zM96 -288h96v-96
h-96v96zM192 -288h96v-96h-96v96zM288 -288h96v-96h-96v96zM384 -288h96v-96h-96v96zM480 -288h96v-96h-96v96zM0 -384h96v-96h-96v96zM576 -384h96v-96h-96v96zM0 -480h96v-96h-96v96zM576 -480h96v-96h-96v96zM0 -576h96v-96h-96v96zM96 -576h96v-96h-96v96zM192 -576h96
v-96h-96v96zM288 -576h96v-96h-96v96zM384 -576h96v-96h-96v96zM480 -576h96v-96h-96v96z" />
    <glyph glyph-name="C" unicode="C" 
d="M96 0h96v-96h-96v96zM192 0h96v-96h-96v96zM288 0h96v-96h-96v96zM384 0h96v-96h-96v96zM480 0h96v-96h-96v96zM0 -96h96v-96h-96v96zM576 -96h96v-96h-96v96zM0 -192h96v-96h-96v96zM0 -288h96v-96h-96v96zM0 -384h96v-96h-96v96zM0 -480h96v-96h-96v96zM576 -480h96
v-96h-96v96zM96 -576h96v-96h-96v96zM192 -576h96v-96h-96v96zM288 -576h96v-96h-96v96zM384 -576h96v-96h-96v96zM480 -576h96v-96h-96v96z" />
    <glyph glyph-name="D" unicode="D" 
d="M0 0h96v-96h-96v96zM96 0h96v-96h-96v96zM192 0h96v-96h-96v96zM288 0h96v-96h-96v96zM384 0h96v-96h-96v96zM480 0h96v-96h-96v96zM0 -96h96v-96h-96v96zM576 -96h96v-96h-96v96zM0 -192h96v-96h-96v96zM576 -192h96v-96h-96v96zM0 -288h96v-96h-96v96zM576 -288h96v-96
h-96v96zM0 -384h96v-96h-96v96zM576 -384h96v-96h-96v96zM0 -480h96v-96h-96v96zM576 -480h96v-96h-96v96zM0 -576h96v-96h-96v96zM96 -576h96v-96h-96v96zM192 -576h96v-96h-96v96zM288 -576h96v-96h-96v96zM384 -576h96v-96h-96v96zM480 -576h96v-96h-96v96z" />
    <glyph glyph-name="E" unicode="E" 
d="M0 0h96v-96h-96v96zM96 0h96v-96h-96v96zM192 0h96v-96h-96v96zM288 0h96v-96h-96v96zM384 0h96v-96h-96v96zM480 0h96v-96h-96v96zM576 0h96v-96h-96v96zM0 -96h96v-96h-96v96zM0 -192h96v-96h-96v96zM0 -288h96v-96h-96v96zM96 -288h96v-96h-96v96zM192 -288h96v-96
h-96v96zM288 -288h96v-96h-96v96zM384 -288h96v-96h-96v96zM480 -288h96v-96h-96v96zM0 -384h96v-96h-96v96zM0 -480h96v-96h-96v96zM0 -576h96v-96h-96v96zM96 -576h96v-96h-96v96zM192 -576h96v-96h-96v96zM288 -576h96v-96h-96v96zM384 -576h96v-96h-96v96zM480 -576h96
v-96h-96v96zM576 -576h96v-96h-96v96z" />
    <glyph glyph-name="F" unicode="F" 
d="M0 0h96v-96h-96v96zM96 0h96v-96h-96v96zM192 0h96v-96h-96v96zM288 0h96v-96h-96v96zM384 0h96v-96h-96v96zM480 0h96v-96h-96v96zM576 0h96v-96h-96v96zM0 -96h96v-96h-96v96zM0 -192h96v-96h-96v96zM0 -288h96v-96h-96v96zM96 -288h96v-96h-96v96zM192 -288h96v-96
h-96v96zM288 -288h96v-96h-96v96zM384 -288h96v-96h-96v96zM480 -288h96v-96h-96v96zM0 -384h96v-96h-96v96zM0 -480h96v-96h-96v96zM0 -576h96v-96h-96v96z" />
    <glyph glyph-name="G" unicode="G" 
d="M96 0h96v-96h-96v96zM192 0h96v-96h-96v96zM288 0h96v-96h-96v96zM384 0h96v-96h-96v96zM480 0h96v-96h-96v96zM0 -96h96v-96h-96v96zM0 -192h96v-96h-96v96zM0 -288h96v-96h-96v96zM384 -288h96v-96h-96v96zM480 -288h96v-96h-96v96zM576 -288h96v-96h-96v96zM0 -384h96
v-96h-96v96zM576 -384h96v-96h-96v96zM0 -480h96v-96h-96v96zM576 -480h96v-96h-96v96zM96 -576h96v-96h-96v96zM192 -576h96v-96h-96v96zM288 -576h96v-96h-96v96zM384 -576h96v-96h-96v96zM480 -576h96v-96h-96v96z" />
    <glyph glyph-name="H" unicode="H" 
d="M0 0h96v-96h-96v96zM576 0h96v-96h-96v96zM0 -96h96v-96h-96v96zM576 -96h96v-96h-96v96zM0 -192h96v-96h-96v96zM576 -192h96v-96h-96v96zM0 -288h96v-96h-96v96zM96 -288h96v-96h-96v96zM192 -288h96v-96h-96v96zM288 -288h96v-96h-96v96zM384 -288h96v-96h-96v96z
M480 -288h96v-96h-96v96zM576 -288h96v-96h-96v96zM0 -384h96v-96h-96v96zM576 -384h96v-96h-96v96zM0 -480h96v-96h-96v96zM576 -480h96v-96h-96v96zM0 -576h96v-96h-96v96zM576 -576h96v-96h-96v96z" />
    <glyph glyph-name="I" unicode="I" 
d="M0 0h96v-96h-96v96zM96 0h96v-96h-96v96zM192 0h96v-96h-96v96zM288 0h96v-96h-96v96zM384 0h96v-96h-96v96zM480 0h96v-96h-96v96zM576 0h96v-96h-96v96zM288 -96h96v-96h-96v96zM288 -192h96v-96h-96v96zM288 -288h96v-96h-96v96zM288 -384h96v-96h-96v96zM288 -480h96
v-96h-96v96zM0 -576h96v-96h-96v96zM96 -576h96v-96h-96v96zM192 -576h96v-96h-96v96zM288 -576h96v-96h-96v96zM384 -576h96v-96h-96v96zM480 -576h96v-96h-96v96zM576 -576h96v-96h-96v96z" />
    <glyph glyph-name="J" unicode="J" 
d="M0 0h96v-96h-96v96zM96 0h96v-96h-96v96zM192 0h96v-96h-96v96zM288 0h96v-96h-96v96zM384 0h96v-96h-96v96zM480 0h96v-96h-96v96zM576 0h96v-96h-96v96zM576 -96h96v-96h-96v96zM576 -192h96v-96h-96v96zM576 -288h96v-96h-96v96zM576 -384h96v-96h-96v96zM0 -480h96
v-96h-96v96zM576 -480h96v-96h-96v96zM96 -576h96v-96h-96v96zM192 -576h96v-96h-96v96zM288 -576h96v-96h-96v96zM384 -576h96v-96h-96v96zM480 -576h96v-96h-96v96z" />
    <glyph glyph-name="K" unicode="K" 
d="M0 0h96v-96h-96v96zM576 0h96v-96h-96v96zM0 -96h96v-96h-96v96zM384 -96h96v-96h-96v96zM480 -96h96v-96h-96v96zM0 -192h96v-96h-96v96zM192 -192h96v-96h-96v96zM288 -192h96v-96h-96v96zM0 -288h96v-96h-96v96zM96 -288h96v-96h-96v96zM0 -384h96v-96h-96v96z
M192 -384h96v-96h-96v96zM288 -384h96v-96h-96v96zM0 -480h96v-96h-96v96zM384 -480h96v-96h-96v96zM480 -480h96v-96h-96v96zM0 -576h96v-96h-96v96zM576 -576h96v-96h-96v96z" />
    <glyph glyph-name="L" unicode="L" 
d="M0 0h96v-96h-96v96zM0 -96h96v-96h-96v96zM0 -192h96v-96h-96v96zM0 -288h96v-96h-96v96zM0 -384h96v-96h-96v96zM0 -480h96v-96h-96v96zM0 -576h96v-96h-96v96zM96 -576h96v-96h-96v96zM192 -576h96v-96h-96v96zM288 -576h96v-96h-96v96zM384 -576h96v-96h-96v96z
M480 -576h96v-96h-96v96zM576 -576h96v-96h-96v96z" />
    <glyph glyph-name="M" unicode="M" 
d="M0 0h96v-96h-96v96zM576 0h96v-96h-96v96zM0 -96h96v-96h-96v96zM96 -96h96v-96h-96v96zM480 -96h96v-96h-96v96zM576 -96h96v-96h-96v96zM0 -192h96v-96h-96v96zM192 -192h96v-96h-96v96zM384 -192h96v-96h-96v96zM576 -192h96v-96h-96v96zM0 -288h96v-96h-96v96z
M288 -288h96v-96h-96v96zM576 -288h96v-96h-96v96zM0 -384h96v-96h-96v96zM576 -384h96v-96h-96v96zM0 -480h96v-96h-96v96zM576 -480h96v-96h-96v96zM0 -576h96v-96h-96v96zM576 -576h96v-96h-96v96z" />
    <glyph glyph-name="N" unicode="N" 
d="M0 0h96v-96h-96v96zM576 0h96v-96h-96v96zM0 -96h96v-96h-96v96zM96 -96h96v-96h-96v96zM576 -96h96v-96h-96v96zM0 -192h96v-96h-96v96zM192 -192h96v-96h-96v96zM576 -192h96v-96h-96v96zM0 -288h96v-96h-96v96zM288 -288h96v-96h-96v96zM576 -288h96v-96h-96v96z
M0 -384h96v-96h-96v96zM384 -384h96v-96h-96v96zM576 -384h96v-96h-96v96zM0 -480h96v-96h-96v96zM480 -480h96v-96h-96v96zM576 -480h96v-96h-96v96zM0 -576h96v-96h-96v96zM576 -576h96v-96h-96v96z" />
    <glyph glyph-name="O" unicode="O" 
d="M96 0h96v-96h-96v96zM192 0h96v-96h-96v96zM288 0h96v-96h-96v96zM384 0h96v-96h-96v96zM480 0h96v-96h-96v96zM0 -96h96v-96h-96v96zM576 -96h96v-96h-96v96zM0 -192h96v-96h-96v96zM576 -192h96v-96h-96v96zM0 -288h96v-96h-96v96zM576 -288h96v-96h-96v96zM0 -384h96
v-96h-96v96zM576 -384h96v-96h-96v96zM0 -480h96v-96h-96v96zM576 -480h96v-96h-96v96zM96 -576h96v-96h-96v96zM192 -576h96v-96h-96v96zM288 -576h96v-96h-96v96zM384 -576h96v-96h-96v96zM480 -576h96v-96h-96v96z" />
    <glyph glyph-name="P" unicode="P" 
d="M0 0h96v-96h-96v96zM96 0h96v-96h-96v96zM192 0h96v-96h-96v96zM288 0h96v-96h-96v96zM384 0h96v-96h-96v96zM480 0h96v-96h-96v96zM0 -96h96v-96h-96v96zM576 -96h96v-96h-96v96zM0 -192h96v-96h-96v96zM576 -192h96v-96h-96v96zM0 -288h96v-96h-96v96zM96 -288h96v-96
h-96v96zM192 -288h96v-96h-96v96zM288 -288h96v-96h-96v96zM384 -288h96v-96h-96v96zM480 -288h96v-96h-96v96zM0 -384h96v-96h-96v96zM0 -480h96v-96h-96v96zM0 -576h96v-96h-96v96z" />
    <glyph glyph-name="Q" unicode="Q" 
d="M96 0h96v-96h-96v96zM192 0h96v-96h-96v96zM288 0h96v-96h-96v96zM384 0h96v-96h-96v96zM480 0h96v-96h-96v96zM0 -96h96v-96h-96v96zM576 -96h96v-96h-96v96zM0 -192h96v-96h-96v96zM576 -192h96v-96h-96v96zM0 -288h96v-96h-96v96zM576 -288h96v-96h-96v96zM0 -384h96
v-96h-96v96zM576 -384h96v-96h-96v96zM0 -480h96v-96h-96v96zM480 -480h96v-96h-96v96zM576 -480h96v-96h-96v96zM96 -576h96v-96h-96v96zM192 -576h96v-96h-96v96zM288 -576h96v-96h-96v96zM384 -576h96v-96h-96v96zM480 -576h96v-96h-96v96zM576 -576h96v-96h-96v96z" />
    <glyph glyph-name="R" unicode="R" 
d="M0 0h96v-96h-96v96zM96 0h96v-96h-96v96zM192 0h96v-96h-96v96zM288 0h96v-96h-96v96zM384 0h96v-96h-96v96zM480 0h96v-96h-96v96zM0 -96h96v-96h-96v96zM576 -96h96v-96h-96v96zM0 -192h96v-96h-96v96zM576 -192h96v-96h-96v96zM0 -288h96v-96h-96v96zM96 -288h96v-96
h-96v96zM192 -288h96v-96h-96v96zM288 -288h96v-96h-96v96zM384 -288h96v-96h-96v96zM480 -288h96v-96h-96v96zM0 -384h96v-96h-96v96zM576 -384h96v-96h-96v96zM0 -480h96v-96h-96v96zM576 -480h96v-96h-96v96zM0 -576h96v-96h-96v96zM576 -576h96v-96h-96v96z" />
    <glyph glyph-name="S" unicode="S" 
d="M96 0h96v-96h-96v96zM192 0h96v-96h-96v96zM288 0h96v-96h-96v96zM384 0h96v-96h-96v96zM480 0h96v-96h-96v96zM0 -96h96v-96h-96v96zM0 -192h96v-96h-96v96zM96 -288h96v-96h-96v96zM192 -288h96v-96h-96v96zM288 -288h96v-96h-96v96zM384 -288h96v-96h-96v96zM480 -288
h96v-96h-96v96zM576 -384h96v-96h-96v96zM576 -480h96v-96h-96v96zM96 -576h96v-96h-96v96zM192 -576h96v-96h-96v96zM288 -576h96v-96h-96v96zM384 -576h96v-96h-96v96zM480 -576h96v-96h-96v96z" />
    <glyph glyph-name="T" unicode="T" 
d="M0 0h96v-96h-96v96zM96 0h96v-96h-96v96zM192 0h96v-96h-96v96zM288 0h96v-96h-96v96zM384 0h96v-96h-96v96zM480 0h96v-96h-96v96zM576 0h96v-96h-96v96zM288 -96h96v-96h-96v96zM288 -192h96v-96h-96v96zM288 -288h96v-96h-96v96zM288 -384h96v-96h-96v96zM288 -480h96
v-96h-96v96zM288 -576h96v-96h-96v96z" />
    <glyph glyph-name="U" unicode="U" 
d="M0 0h96v-96h-96v96zM576 0h96v-96h-96v96zM0 -96h96v-96h-96v96zM576 -96h96v-96h-96v96zM0 -192h96v-96h-96v96zM576 -192h96v-96h-96v96zM0 -288h96v-96h-96v96zM576 -288h96v-96h-96v96zM0 -384h96v-96h-96v96zM576 -384h96v-96h-96v96zM0 -480h96v-96h-96v96z
M576 -480h96v-96h-96v96zM96 -576h96v-96h-96v96zM192 -576h96v-96h-96v96zM288 -576h96v-96h-96v96zM384 -576h96v-96h-96v96zM480 -576h96v-96h-96v96z" />
    <glyph glyph-name="V" unicode="V" 
d="M0 0h96v-96h-96v96zM576 0h96v-96h-96v96zM0 -96h96v-96h-96v96zM576 -96h96v-96h-96v96zM96 -192h96v-96h-96v96zM480 -192h96v-96h-96v96zM96 -288h96v-96h-96v96zM480 -288h96v-96h-96v96zM192 -384h96v-96h-96v96zM384 -384h96v-96h-96v96zM192 -480h96v-96h-96v96z
M384 -480h96v-96h-96v96zM288 -576h96v-96h-96v96z" />
    <glyph glyph-name="W" unicode="W" 
d="M0 0h96v-96h-96v96zM576 0h96v-96h-96v96zM0 -96h96v-96h-96v96zM576 -96h96v-96h-96v96zM0 -192h96v-96h-96v96zM576 -192h96v-96h-96v96zM0 -288h96v-96h-96v96zM576 -288h96v-96h-96v96zM0 -384h96v-96h-96v96zM288 -384h96v-96h-96v96zM576 -384h96v-96h-96v96z
M0 -480h96v-96h-96v96zM288 -480h96v-96h-96v96zM576 -480h96v-96h-96v96zM96 -576h96v-96h-96v96zM192 -576h96v-96h-96v96zM384 -576h96v-96h-96v96zM480 -576h96v-96h-96v96z" />
    <glyph glyph-name="X" unicode="X" 
d="M0 0h96v-96h-96v96zM576 0h96v-96h-96v96zM96 -96h96v-96h-96v96zM480 -96h96v-96h-96v96zM192 -192h96v-96h-96v96zM384 -192h96v-96h-96v96zM288 -288h96v-96h-96v96zM192 -384h96v-96h-96v96zM384 -384h96v-96h-96v96zM96 -480h96v-96h-96v96zM480 -480h96v-96h-96v96
zM0 -576h96v-96h-96v96zM576 -576h96v-96h-96v96z" />
    <glyph glyph-name="Y" unicode="Y" 
d="M0 0h96v-96h-96v96zM576 0h96v-96h-96v96zM96 -96h96v-96h-96v96zM480 -96h96v-96h-96v96zM192 -192h96v-96h-96v96zM384 -192h96v-96h-96v96zM288 -288h96v-96h-96v96zM288 -384h96v-96h-96v96zM288 -480h96v-96h-96v96zM288 -576h96v-96h-96v96z" />
    <glyph glyph-name="Z" unicode="Z" 
d="M0 0h96v-96h-96v96zM96 0h96v-96h-96v96zM192 0h96v-96h-96v96zM288 0h96v-96h-96v96zM384 0h96v-96h-96v96zM480 0h96v-96h-96v96zM576 0h96v-96h-96v96zM480 -96h96v-96h-96v96zM384 -192h96v-96h-96v96zM288 -288h96v-96h-96v96zM192 -384h96v-96h-96v96zM96 -480h96
v-96h-96v96zM0 -576h96v-96h-96v96zM96 -576h96v-96h-96v96zM192 -576h96v-96h-96v96zM288 -576h96v-96h-96v96zM384 -576h96v-96h-96v96zM480 -576h96v-96h-96v96zM576 -576h96v-96h-96v96z" />
    <glyph glyph-name="bracketleft" unicode="[" horiz-adv-x="288" 
d="M0 0h96v-96h-96v96zM96 0h96v-96h-96v96zM0 -96h96v-96h-96v96zM0 -192h96v-96h-96v96zM0 -288h96v-96h-96v96zM0 -384h96v-96h-96v96zM0 -480h96v-96h-96v96zM0 -576h96v-96h-96v96zM96 -576h96v-96h-96v96z" />
    <glyph glyph-name="backslash" unicode="\" horiz-adv-x="384" 
d="M0 0h96v-96h-96v96zM0 -96h96v-96h-96v96zM96 -192h96v-96h-96v96zM96 -288h96v-96h-96v96zM96 -384h96v-96h-96v96zM192 -480h96v-96h-96v96zM192 -576h96v-96h-96v96z" />
    <glyph glyph-name="bracketright" unicode="]" horiz-adv-x="288" 
d="M0 0h96v-96h-96v96zM96 0h96v-96h-96v96zM96 -96h96v-96h-96v96zM96 -192h96v-96h-96v96zM96 -288h96v-96h-96v96zM96 -384h96v-96h-96v96zM96 -480h96v-96h-96v96zM0 -576h96v-96h-96v96zM96 -576h96v-96h-96v96z" />
    <glyph glyph-name="asciicircum" unicode="^" horiz-adv-x="384" 
d="M96 0h96v-96h-96v96zM0 -96h96v-96h-96v96zM192 -96h96v-96h-96v96z" />
    <glyph glyph-name="underscore" unicode="_" 
d="M0 -576h96v-96h-96v96zM96 -576h96v-96h-96v96zM192 -576h96v-96h-96v96zM288 -576h96v-96h-96v96zM384 -576h96v-96h-96v96zM480 -576h96v-96h-96v96zM576 -576h96v-96h-96v96z" />
    <glyph glyph-name="grave" unicode="`" horiz-adv-x="384" 
d="M0 0h96v-96h-96v96zM96 0h96v-96h-96v96zM96 -96h96v-96h-96v96zM192 -96h96v-96h-96v96z" />
    <glyph glyph-name="a" unicode="a" 
d="M96 0h96v-96h-96v96zM192 0h96v-96h-96v96zM288 0h96v-96h-96v96zM384 0h96v-96h-96v96zM480 0h96v-96h-96v96zM0 -96h96v-96h-96v96zM576 -96h96v-96h-96v96zM0 -192h96v-96h-96v96zM576 -192h96v-96h-96v96zM0 -288h96v-96h-96v96zM96 -288h96v-96h-96v96zM192 -288h96
v-96h-96v96zM288 -288h96v-96h-96v96zM384 -288h96v-96h-96v96zM480 -288h96v-96h-96v96zM576 -288h96v-96h-96v96zM0 -384h96v-96h-96v96zM576 -384h96v-96h-96v96zM0 -480h96v-96h-96v96zM576 -480h96v-96h-96v96zM0 -576h96v-96h-96v96zM576 -576h96v-96h-96v96z" />
    <glyph glyph-name="b" unicode="b" 
d="M0 0h96v-96h-96v96zM96 0h96v-96h-96v96zM192 0h96v-96h-96v96zM288 0h96v-96h-96v96zM384 0h96v-96h-96v96zM480 0h96v-96h-96v96zM0 -96h96v-96h-96v96zM576 -96h96v-96h-96v96zM0 -192h96v-96h-96v96zM576 -192h96v-96h-96v96zM0 -288h96v-96h-96v96zM96 -288h96v-96
h-96v96zM192 -288h96v-96h-96v96zM288 -288h96v-96h-96v96zM384 -288h96v-96h-96v96zM480 -288h96v-96h-96v96zM0 -384h96v-96h-96v96zM576 -384h96v-96h-96v96zM0 -480h96v-96h-96v96zM576 -480h96v-96h-96v96zM0 -576h96v-96h-96v96zM96 -576h96v-96h-96v96zM192 -576h96
v-96h-96v96zM288 -576h96v-96h-96v96zM384 -576h96v-96h-96v96zM480 -576h96v-96h-96v96z" />
    <glyph glyph-name="c" unicode="c" 
d="M96 0h96v-96h-96v96zM192 0h96v-96h-96v96zM288 0h96v-96h-96v96zM384 0h96v-96h-96v96zM480 0h96v-96h-96v96zM0 -96h96v-96h-96v96zM576 -96h96v-96h-96v96zM0 -192h96v-96h-96v96zM0 -288h96v-96h-96v96zM0 -384h96v-96h-96v96zM0 -480h96v-96h-96v96zM576 -480h96
v-96h-96v96zM96 -576h96v-96h-96v96zM192 -576h96v-96h-96v96zM288 -576h96v-96h-96v96zM384 -576h96v-96h-96v96zM480 -576h96v-96h-96v96z" />
    <glyph glyph-name="d" unicode="d" 
d="M0 0h96v-96h-96v96zM96 0h96v-96h-96v96zM192 0h96v-96h-96v96zM288 0h96v-96h-96v96zM384 0h96v-96h-96v96zM480 0h96v-96h-96v96zM0 -96h96v-96h-96v96zM576 -96h96v-96h-96v96zM0 -192h96v-96h-96v96zM576 -192h96v-96h-96v96zM0 -288h96v-96h-96v96zM576 -288h96v-96
h-96v96zM0 -384h96v-96h-96v96zM576 -384h96v-96h-96v96zM0 -480h96v-96h-96v96zM576 -480h96v-96h-96v96zM0 -576h96v-96h-96v96zM96 -576h96v-96h-96v96zM192 -576h96v-96h-96v96zM288 -576h96v-96h-96v96zM384 -576h96v-96h-96v96zM480 -576h96v-96h-96v96z" />
    <glyph glyph-name="e" unicode="e" 
d="M0 0h96v-96h-96v96zM96 0h96v-96h-96v96zM192 0h96v-96h-96v96zM288 0h96v-96h-96v96zM384 0h96v-96h-96v96zM480 0h96v-96h-96v96zM576 0h96v-96h-96v96zM0 -96h96v-96h-96v96zM0 -192h96v-96h-96v96zM0 -288h96v-96h-96v96zM96 -288h96v-96h-96v96zM192 -288h96v-96
h-96v96zM288 -288h96v-96h-96v96zM384 -288h96v-96h-96v96zM480 -288h96v-96h-96v96zM0 -384h96v-96h-96v96zM0 -480h96v-96h-96v96zM0 -576h96v-96h-96v96zM96 -576h96v-96h-96v96zM192 -576h96v-96h-96v96zM288 -576h96v-96h-96v96zM384 -576h96v-96h-96v96zM480 -576h96
v-96h-96v96zM576 -576h96v-96h-96v96z" />
    <glyph glyph-name="f" unicode="f" 
d="M0 0h96v-96h-96v96zM96 0h96v-96h-96v96zM192 0h96v-96h-96v96zM288 0h96v-96h-96v96zM384 0h96v-96h-96v96zM480 0h96v-96h-96v96zM576 0h96v-96h-96v96zM0 -96h96v-96h-96v96zM0 -192h96v-96h-96v96zM0 -288h96v-96h-96v96zM96 -288h96v-96h-96v96zM192 -288h96v-96
h-96v96zM288 -288h96v-96h-96v96zM384 -288h96v-96h-96v96zM480 -288h96v-96h-96v96zM0 -384h96v-96h-96v96zM0 -480h96v-96h-96v96zM0 -576h96v-96h-96v96z" />
    <glyph glyph-name="g" unicode="g" 
d="M96 0h96v-96h-96v96zM192 0h96v-96h-96v96zM288 0h96v-96h-96v96zM384 0h96v-96h-96v96zM480 0h96v-96h-96v96zM0 -96h96v-96h-96v96zM0 -192h96v-96h-96v96zM0 -288h96v-96h-96v96zM384 -288h96v-96h-96v96zM480 -288h96v-96h-96v96zM576 -288h96v-96h-96v96zM0 -384h96
v-96h-96v96zM576 -384h96v-96h-96v96zM0 -480h96v-96h-96v96zM576 -480h96v-96h-96v96zM96 -576h96v-96h-96v96zM192 -576h96v-96h-96v96zM288 -576h96v-96h-96v96zM384 -576h96v-96h-96v96zM480 -576h96v-96h-96v96z" />
    <glyph glyph-name="h" unicode="h" 
d="M0 0h96v-96h-96v96zM576 0h96v-96h-96v96zM0 -96h96v-96h-96v96zM576 -96h96v-96h-96v96zM0 -192h96v-96h-96v96zM576 -192h96v-96h-96v96zM0 -288h96v-96h-96v96zM96 -288h96v-96h-96v96zM192 -288h96v-96h-96v96zM288 -288h96v-96h-96v96zM384 -288h96v-96h-96v96z
M480 -288h96v-96h-96v96zM576 -288h96v-96h-96v96zM0 -384h96v-96h-96v96zM576 -384h96v-96h-96v96zM0 -480h96v-96h-96v96zM576 -480h96v-96h-96v96zM0 -576h96v-96h-96v96zM576 -576h96v-96h-96v96z" />
    <glyph glyph-name="i" unicode="i" 
d="M0 0h96v-96h-96v96zM96 0h96v-96h-96v96zM192 0h96v-96h-96v96zM288 0h96v-96h-96v96zM384 0h96v-96h-96v96zM480 0h96v-96h-96v96zM576 0h96v-96h-96v96zM288 -96h96v-96h-96v96zM288 -192h96v-96h-96v96zM288 -288h96v-96h-96v96zM288 -384h96v-96h-96v96zM288 -480h96
v-96h-96v96zM0 -576h96v-96h-96v96zM96 -576h96v-96h-96v96zM192 -576h96v-96h-96v96zM288 -576h96v-96h-96v96zM384 -576h96v-96h-96v96zM480 -576h96v-96h-96v96zM576 -576h96v-96h-96v96z" />
    <glyph glyph-name="j" unicode="j" 
d="M0 0h96v-96h-96v96zM96 0h96v-96h-96v96zM192 0h96v-96h-96v96zM288 0h96v-96h-96v96zM384 0h96v-96h-96v96zM480 0h96v-96h-96v96zM576 0h96v-96h-96v96zM576 -96h96v-96h-96v96zM576 -192h96v-96h-96v96zM576 -288h96v-96h-96v96zM576 -384h96v-96h-96v96zM0 -480h96
v-96h-96v96zM576 -480h96v-96h-96v96zM96 -576h96v-96h-96v96zM192 -576h96v-96h-96v96zM288 -576h96v-96h-96v96zM384 -576h96v-96h-96v96zM480 -576h96v-96h-96v96z" />
    <glyph glyph-name="k" unicode="k" 
d="M0 0h96v-96h-96v96zM576 0h96v-96h-96v96zM0 -96h96v-96h-96v96zM384 -96h96v-96h-96v96zM480 -96h96v-96h-96v96zM0 -192h96v-96h-96v96zM192 -192h96v-96h-96v96zM288 -192h96v-96h-96v96zM0 -288h96v-96h-96v96zM96 -288h96v-96h-96v96zM0 -384h96v-96h-96v96z
M192 -384h96v-96h-96v96zM288 -384h96v-96h-96v96zM0 -480h96v-96h-96v96zM384 -480h96v-96h-96v96zM480 -480h96v-96h-96v96zM0 -576h96v-96h-96v96zM576 -576h96v-96h-96v96z" />
    <glyph glyph-name="l" unicode="l" 
d="M0 0h96v-96h-96v96zM0 -96h96v-96h-96v96zM0 -192h96v-96h-96v96zM0 -288h96v-96h-96v96zM0 -384h96v-96h-96v96zM0 -480h96v-96h-96v96zM0 -576h96v-96h-96v96zM96 -576h96v-96h-96v96zM192 -576h96v-96h-96v96zM288 -576h96v-96h-96v96zM384 -576h96v-96h-96v96z
M480 -576h96v-96h-96v96zM576 -576h96v-96h-96v96z" />
    <glyph glyph-name="m" unicode="m" 
d="M0 0h96v-96h-96v96zM576 0h96v-96h-96v96zM0 -96h96v-96h-96v96zM96 -96h96v-96h-96v96zM480 -96h96v-96h-96v96zM576 -96h96v-96h-96v96zM0 -192h96v-96h-96v96zM192 -192h96v-96h-96v96zM384 -192h96v-96h-96v96zM576 -192h96v-96h-96v96zM0 -288h96v-96h-96v96z
M288 -288h96v-96h-96v96zM576 -288h96v-96h-96v96zM0 -384h96v-96h-96v96zM576 -384h96v-96h-96v96zM0 -480h96v-96h-96v96zM576 -480h96v-96h-96v96zM0 -576h96v-96h-96v96zM576 -576h96v-96h-96v96z" />
    <glyph glyph-name="n" unicode="n" 
d="M0 0h96v-96h-96v96zM576 0h96v-96h-96v96zM0 -96h96v-96h-96v96zM96 -96h96v-96h-96v96zM576 -96h96v-96h-96v96zM0 -192h96v-96h-96v96zM192 -192h96v-96h-96v96zM576 -192h96v-96h-96v96zM0 -288h96v-96h-96v96zM288 -288h96v-96h-96v96zM576 -288h96v-96h-96v96z
M0 -384h96v-96h-96v96zM384 -384h96v-96h-96v96zM576 -384h96v-96h-96v96zM0 -480h96v-96h-96v96zM480 -480h96v-96h-96v96zM576 -480h96v-96h-96v96zM0 -576h96v-96h-96v96zM576 -576h96v-96h-96v96z" />
    <glyph glyph-name="o" unicode="o" 
d="M96 0h96v-96h-96v96zM192 0h96v-96h-96v96zM288 0h96v-96h-96v96zM384 0h96v-96h-96v96zM480 0h96v-96h-96v96zM0 -96h96v-96h-96v96zM576 -96h96v-96h-96v96zM0 -192h96v-96h-96v96zM576 -192h96v-96h-96v96zM0 -288h96v-96h-96v96zM576 -288h96v-96h-96v96zM0 -384h96
v-96h-96v96zM576 -384h96v-96h-96v96zM0 -480h96v-96h-96v96zM576 -480h96v-96h-96v96zM96 -576h96v-96h-96v96zM192 -576h96v-96h-96v96zM288 -576h96v-96h-96v96zM384 -576h96v-96h-96v96zM480 -576h96v-96h-96v96z" />
    <glyph glyph-name="p" unicode="p" 
d="M0 0h96v-96h-96v96zM96 0h96v-96h-96v96zM192 0h96v-96h-96v96zM288 0h96v-96h-96v96zM384 0h96v-96h-96v96zM480 0h96v-96h-96v96zM0 -96h96v-96h-96v96zM576 -96h96v-96h-96v96zM0 -192h96v-96h-96v96zM576 -192h96v-96h-96v96zM0 -288h96v-96h-96v96zM96 -288h96v-96
h-96v96zM192 -288h96v-96h-96v96zM288 -288h96v-96h-96v96zM384 -288h96v-96h-96v96zM480 -288h96v-96h-96v96zM0 -384h96v-96h-96v96zM0 -480h96v-96h-96v96zM0 -576h96v-96h-96v96z" />
    <glyph glyph-name="q" unicode="q" 
d="M96 0h96v-96h-96v96zM192 0h96v-96h-96v96zM288 0h96v-96h-96v96zM384 0h96v-96h-96v96zM480 0h96v-96h-96v96zM0 -96h96v-96h-96v96zM576 -96h96v-96h-96v96zM0 -192h96v-96h-96v96zM576 -192h96v-96h-96v96zM0 -288h96v-96h-96v96zM576 -288h96v-96h-96v96zM0 -384h96
v-96h-96v96zM576 -384h96v-96h-96v96zM0 -480h96v-96h-96v96zM480 -480h96v-96h-96v96zM576 -480h96v-96h-96v96zM96 -576h96v-96h-96v96zM192 -576h96v-96h-96v96zM288 -576h96v-96h-96v96zM384 -576h96v-96h-96v96zM480 -576h96v-96h-96v96zM576 -576h96v-96h-96v96z" />
    <glyph glyph-name="r" unicode="r" 
d="M0 0h96v-96h-96v96zM96 0h96v-96h-96v96zM192 0h96v-96h-96v96zM288 0h96v-96h-96v96zM384 0h96v-96h-96v96zM480 0h96v-96h-96v96zM0 -96h96v-96h-96v96zM576 -96h96v-96h-96v96zM0 -192h96v-96h-96v96zM576 -192h96v-96h-96v96zM0 -288h96v-96h-96v96zM96 -288h96v-96
h-96v96zM192 -288h96v-96h-96v96zM288 -288h96v-96h-96v96zM384 -288h96v-96h-96v96zM480 -288h96v-96h-96v96zM0 -384h96v-96h-96v96zM576 -384h96v-96h-96v96zM0 -480h96v-96h-96v96zM576 -480h96v-96h-96v96zM0 -576h96v-96h-96v96zM576 -576h96v-96h-96v96z" />
    <glyph glyph-name="s" unicode="s" 
d="M96 0h96v-96h-96v96zM192 0h96v-96h-96v96zM288 0h96v-96h-96v96zM384 0h96v-96h-96v96zM480 0h96v-96h-96v96zM0 -96h96v-96h-96v96zM0 -192h96v-96h-96v96zM96 -288h96v-96h-96v96zM192 -288h96v-96h-96v96zM288 -288h96v-96h-96v96zM384 -288h96v-96h-96v96zM480 -288
h96v-96h-96v96zM576 -384h96v-96h-96v96zM576 -480h96v-96h-96v96zM96 -576h96v-96h-96v96zM192 -576h96v-96h-96v96zM288 -576h96v-96h-96v96zM384 -576h96v-96h-96v96zM480 -576h96v-96h-96v96z" />
    <glyph glyph-name="t" unicode="t" 
d="M0 0h96v-96h-96v96zM96 0h96v-96h-96v96zM192 0h96v-96h-96v96zM288 0h96v-96h-96v96zM384 0h96v-96h-96v96zM480 0h96v-96h-96v96zM576 0h96v-96h-96v96zM288 -96h96v-96h-96v96zM288 -192h96v-96h-96v96zM288 -288h96v-96h-96v96zM288 -384h96v-96h-96v96zM288 -480h96
v-96h-96v96zM288 -576h96v-96h-96v96z" />
    <glyph glyph-name="u" unicode="u" 
d="M0 0h96v-96h-96v96zM576 0h96v-96h-96v96zM0 -96h96v-96h-96v96zM576 -96h96v-96h-96v96zM0 -192h96v-96h-96v96zM576 -192h96v-96h-96v96zM0 -288h96v-96h-96v96zM576 -288h96v-96h-96v96zM0 -384h96v-96h-96v96zM576 -384h96v-96h-96v96zM0 -480h96v-96h-96v96z
M576 -480h96v-96h-96v96zM96 -576h96v-96h-96v96zM192 -576h96v-96h-96v96zM288 -576h96v-96h-96v96zM384 -576h96v-96h-96v96zM480 -576h96v-96h-96v96z" />
    <glyph glyph-name="v" unicode="v" 
d="M0 0h96v-96h-96v96zM576 0h96v-96h-96v96zM0 -96h96v-96h-96v96zM576 -96h96v-96h-96v96zM96 -192h96v-96h-96v96zM480 -192h96v-96h-96v96zM96 -288h96v-96h-96v96zM480 -288h96v-96h-96v96zM192 -384h96v-96h-96v96zM384 -384h96v-96h-96v96zM192 -480h96v-96h-96v96z
M384 -480h96v-96h-96v96zM288 -576h96v-96h-96v96z" />
    <glyph glyph-name="w" unicode="w" 
d="M0 0h96v-96h-96v96zM576 0h96v-96h-96v96zM0 -96h96v-96h-96v96zM576 -96h96v-96h-96v96zM0 -192h96v-96h-96v96zM576 -192h96v-96h-96v96zM0 -288h96v-96h-96v96zM576 -288h96v-96h-96v96zM0 -384h96v-96h-96v96zM288 -384h96v-96h-96v96zM576 -384h96v-96h-96v96z
M0 -480h96v-96h-96v96zM288 -480h96v-96h-96v96zM576 -480h96v-96h-96v96zM96 -576h96v-96h-96v96zM192 -576h96v-96h-96v96zM384 -576h96v-96h-96v96zM480 -576h96v-96h-96v96z" />
    <glyph glyph-name="x" unicode="x" 
d="M0 0h96v-96h-96v96zM576 0h96v-96h-96v96zM96 -96h96v-96h-96v96zM480 -96h96v-96h-96v96zM192 -192h96v-96h-96v96zM384 -192h96v-96h-96v96zM288 -288h96v-96h-96v96zM192 -384h96v-96h-96v96zM384 -384h96v-96h-96v96zM96 -480h96v-96h-96v96zM480 -480h96v-96h-96v96
zM0 -576h96v-96h-96v96zM576 -576h96v-96h-96v96z" />
    <glyph glyph-name="y" unicode="y" 
d="M0 0h96v-96h-96v96zM576 0h96v-96h-96v96zM96 -96h96v-96h-96v96zM480 -96h96v-96h-96v96zM192 -192h96v-96h-96v96zM384 -192h96v-96h-96v96zM288 -288h96v-96h-96v96zM288 -384h96v-96h-96v96zM288 -480h96v-96h-96v96zM288 -576h96v-96h-96v96z" />
    <glyph glyph-name="z" unicode="z" 
d="M0 0h96v-96h-96v96zM96 0h96v-96h-96v96zM192 0h96v-96h-96v96zM288 0h96v-96h-96v96zM384 0h96v-96h-96v96zM480 0h96v-96h-96v96zM576 0h96v-96h-96v96zM480 -96h96v-96h-96v96zM384 -192h96v-96h-96v96zM288 -288h96v-96h-96v96zM192 -384h96v-96h-96v96zM96 -480h96
v-96h-96v96zM0 -576h96v-96h-96v96zM96 -576h96v-96h-96v96zM192 -576h96v-96h-96v96zM288 -576h96v-96h-96v96zM384 -576h96v-96h-96v96zM480 -576h96v-96h-96v96zM576 -576h96v-96h-96v96z" />
    <glyph glyph-name="braceleft" unicode="{" horiz-adv-x="384" 
d="M192 0h96v-96h-96v96zM96 -96h96v-96h-96v96zM96 -192h96v-96h-96v96zM0 -288h96v-96h-96v96zM96 -288h96v-96h-96v96zM96 -384h96v-96h-96v96zM96 -480h96v-96h-96v96zM192 -576h96v-96h-96v96z" />
    <glyph glyph-name="bar" unicode="|" horiz-adv-x="192" 
d="M0 0h96v-96h-96v96zM0 -96h96v-96h-96v96zM0 -192h96v-96h-96v96zM0 -288h96v-96h-96v96zM0 -384h96v-96h-96v96zM0 -480h96v-96h-96v96zM0 -576h96v-96h-96v96z" />
    <glyph glyph-name="braceright" unicode="}" horiz-adv-x="384" 
d="M0 0h96v-96h-96v96zM96 -96h96v-96h-96v96zM96 -192h96v-96h-96v96zM96 -288h96v-96h-96v96zM192 -288h96v-96h-96v96zM96 -384h96v-96h-96v96zM96 -480h96v-96h-96v96zM0 -576h96v-96h-96v96z" />
    <glyph glyph-name="asciitilde" unicode="~" 
d="M96 0h96v-96h-96v96zM192 0h96v-96h-96v96zM0 -96h96v-96h-96v96zM288 -96h96v-96h-96v96zM576 -96h96v-96h-96v96zM384 -192h96v-96h-96v96zM480 -192h96v-96h-96v96z" />
  </font>
</defs>
</svg>
